<svg xmlns="http://www.w3.org/2000/svg" width="37.959" height="30.849" viewBox="0 0 37.959 30.849"><defs><style>.a{fill:#e3e4e9;}</style></defs><path class="a" d="M40.53,8.469A15.571,15.571,0,0,1,36.057,9.7a7.811,7.811,0,0,0,3.424-4.309,15.591,15.591,0,0,1-4.945,1.89,7.8,7.8,0,0,0-13.271,7.1A22.11,22.11,0,0,1,5.213,6.243a7.8,7.8,0,0,0,2.41,10.4A7.756,7.756,0,0,1,4.1,15.666c0,.032,0,.065,0,.1A7.793,7.793,0,0,0,10.342,23.4a7.8,7.8,0,0,1-3.517.133A7.8,7.8,0,0,0,14.1,28.942a15.625,15.625,0,0,1-9.672,3.334,15.8,15.8,0,0,1-1.858-.109,22.042,22.042,0,0,0,11.938,3.5c14.325,0,22.158-11.867,22.158-22.158q0-.506-.023-1.008A15.821,15.821,0,0,0,40.53,8.469Z" transform="translate(-2.571 -4.817)"/></svg>