<svg xmlns="http://www.w3.org/2000/svg" width="26" height="26" viewBox="0 0 26 26"><defs><style>.a{fill:#9ca3b2;}.b{fill:none;}</style></defs><path class="a" d="M25-39a12.922,12.922,0,0,0-12,8.5A12.922,12.922,0,0,0,25-22a12.922,12.922,0,0,0,12-8.5A12.922,12.922,0,0,0,25-39Zm0,14.167A5.566,5.566,0,0,1,19.545-30.5,5.566,5.566,0,0,1,25-36.167,5.566,5.566,0,0,1,30.455-30.5,5.566,5.566,0,0,1,25-24.833ZM25-33.9a3.334,3.334,0,0,0-3.273,3.4A3.334,3.334,0,0,0,25-27.1a3.334,3.334,0,0,0,3.273-3.4A3.334,3.334,0,0,0,25-33.9Z" transform="translate(-12 44)"/><rect class="b" width="26" height="26"/></svg>